<?xml version="1.0" encoding="UTF-8" standalone="no"?>
<svg
   xmlns:dc="http://purl.org/dc/elements/1.1/"
   xmlns:cc="http://creativecommons.org/ns#"
   xmlns:rdf="http://www.w3.org/1999/02/22-rdf-syntax-ns#"
   xmlns:svg="http://www.w3.org/2000/svg"
   xmlns="http://www.w3.org/2000/svg"
   xmlns:sodipodi="http://sodipodi.sourceforge.net/DTD/sodipodi-0.dtd"
   xmlns:inkscape="http://www.inkscape.org/namespaces/inkscape"
   id="Layer_1"
   data-name="Layer 1"
   viewBox="0 0 325.98001 314.18999"
   version="1.1"
   sodipodi:docname="tfsec.svg"
   width="325.98001"
   height="314.19"
   inkscape:version="0.92.5 (2060ec1f9f, 2020-04-08)">
  <metadata
     id="metadata3534">
    <rdf:RDF>
      <cc:Work
         rdf:about="">
        <dc:format>image/svg+xml</dc:format>
        <dc:type
           rdf:resource="http://purl.org/dc/dcmitype/StillImage" />
        <dc:title />
      </cc:Work>
    </rdf:RDF>
  </metadata>
  <sodipodi:namedview
     pagecolor="#ffffff"
     bordercolor="#666666"
     borderopacity="1"
     objecttolerance="10"
     gridtolerance="10"
     guidetolerance="10"
     inkscape:pageopacity="0"
     inkscape:pageshadow="2"
     inkscape:window-width="3818"
     inkscape:window-height="2098"
     id="namedview3532"
     showgrid="false"
     fit-margin-top="0"
     fit-margin-left="0"
     fit-margin-right="0"
     fit-margin-bottom="0"
     inkscape:zoom="1.047434"
     inkscape:cx="224.29784"
     inkscape:cy="-46.746241"
     inkscape:window-x="9"
     inkscape:window-y="49"
     inkscape:window-maximized="0"
     inkscape:current-layer="Layer_1" />
  <defs
     id="defs3495">
    <style
       id="style3490">.cls-1{fill:#00ffe4;}.cls-2{fill:#07242d;}.cls-3{clip-path:url(#clip-path);}.cls-4{fill:#08b1d5;}.cls-5{fill:#ff445f;}.cls-6{fill:#ffc900;}.cls-7{fill:#1904da;}.cls-8{fill:#183278;}</style>
    <clipPath
       id="clip-path">
      <path
         class="cls-1"
         d="M 279.39,71 Q 266.06,69.61 252.86,69.11 239.67,69.62 226.34,71 c -48,5 -92.5,17 -135.69,37.24 l 9.48,43.76 18.73,68 c 0,0 17.21,51 51.9,91.93 31.06,36.69 73.57,65.13 82.1,69.81 8.54,-4.68 51.05,-33.12 82.11,-69.81 34.69,-41 51.9,-91.93 51.9,-91.93 l 18.73,-68 9.47,-43.74 C 371.88,88 327.34,76 279.39,71 Z"
         id="path3492"
         inkscape:connector-curvature="0"
         style="fill:#00ffe4" />
    </clipPath>
  </defs>
  <g
     class="cls-3"
     clip-path="url(#clip-path)"
     id="g3525"
     transform="translate(-89.86,-67.55)"
     style="fill:#cccccc;fill-opacity:1">
    <path
       class="cls-5"
       d="m 392.26,205.42 14.3,-34.6 C 376.49,154.2 334.24,141.39 291.35,136.88 v 0.52 h -0.29 c 0,6.14 0.11,11.65 0.29,16.71 v 81.52 a 353.27,353.27 0 0 1 36.48,5.67 241.16,241.16 0 0 1 -29.75,42.45 c -19.53,21.89 -42.9,41.44 -45.22,41.8 0,0 -0.05,60.42 0,60.45 0.81,0.44 55,-32.86 88.65,-72.65 C 375.62,273 389.87,220 389.87,220 a 309.64,309.64 0 0 0 -54.64,-18.3 v -16.23 a 278.7,278.7 0 0 1 57.03,19.95 z"
       id="path3519"
       inkscape:connector-curvature="0"
       style="fill:#cccccc;fill-opacity:1" />
    <path
       class="cls-6"
       d="m 212.27,137.51 c -41.52,4.26 -78.82,15.45 -108.06,31.42 l 10.22,34.67 c 27.5,-13.18 61,-22.42 97.84,-26.2 z"
       id="path3521"
       inkscape:connector-curvature="0"
       style="fill:#cccccc;fill-opacity:1" />
    <path
       class="cls-6"
       d="m 214.35,194.44 v 41.15 a 353.27,353.27 0 0 0 -36.48,5.67 241.16,241.16 0 0 0 29.75,42.45 c 19.54,21.89 42.91,41.44 45.22,41.8 0,0 0,60.42 0,60.45 -0.82,0.44 -55,-32.86 -88.65,-72.65 C 130.08,273 115.84,220 115.84,220 c 15.84,-7.18 37.27,-13.84 54.63,-18.3 17.87,-4.54 43.88,-7.26 43.88,-7.26 z"
       id="path3523"
       inkscape:connector-curvature="0"
       style="fill:#cccccc;fill-opacity:1" />
  </g>
  <path
     class="cls-7"
     d="M 163.02,0 V 0 Q 149.76,0.51 136.36,1.9 C 88.14,6.96 43.41,19.01 0,39.32 l 9.52,44 0.35,1.27 c 40.33,-17.62 82,-28.29 126.49,-33 l 3.36,-0.33 v 88 a 30.6,30.6 0 0 1 23.3,-10.71 z"
     id="path3527"
     inkscape:connector-curvature="0"
     style="fill:#cccccc;fill-opacity:1" />
  <path
     class="cls-8"
     d="m 162.96,0.02 v 0 q 13.26,0.51 26.66,1.9 c 48.19,5.06 93,17.11 136.36,37.42 l -9.52,44 -0.35,1.27 C 275.79,66.99 234.17,56.32 189.62,51.61 l -3.35,-0.33 v 88 a 30.62,30.62 0 0 0 -23.31,-10.71 z"
     id="path3529"
     inkscape:connector-curvature="0"
     style="fill:#cccccc;fill-opacity:1" />
</svg>
